<?xml version="1.0" encoding="UTF-8" standalone="no"?>
<!DOCTYPE svg PUBLIC "-//W3C//DTD SVG 1.1//EN" "http://www.w3.org/Graphics/SVG/1.1/DTD/svg11.dtd">
<svg width="32" height="32" viewBox="0 0 216 216" version="1.1" xmlns="http://www.w3.org/2000/svg" xmlns:xlink="http://www.w3.org/1999/xlink" xml:space="preserve" style="fill-rule:evenodd;clip-rule:evenodd;stroke-linecap:round;stroke-linejoin:round;stroke-miterlimit:1.5;">
    <g transform="matrix(1,0,0,1,-9,-9)">
        <g transform="matrix(0.914037,0,0,0.914037,-621.545,-225.767)">
            <g transform="matrix(1.09405,0,0,1.09405,680,247)">
                <circle cx="116.962" cy="116.962" r="107.962" style="fill:white;"/>
            </g>
        </g>
        <g transform="matrix(0.914037,0,0,0.914037,-621.545,-225.767)">
            <g transform="matrix(0.954419,0.278094,-0.278094,0.954419,195.823,-116.12)">
                <path d="M756,268L756,377.439C756,377.439 755.01,412.851 731.561,412C708.113,411.149 707,377.439 707,377.439L707,314C707,314 720.055,315.394 725.663,303.992C739.541,275.775 709.519,216.483 730.61,192.66C735.984,186.59 738.308,187.075 740.36,188.223C749.558,193.369 734.382,252.637 741.866,265.91C748.898,278.382 756.487,268.062 756,268Z" style="fill:rgb(73,255,83);"/>
            </g>
        </g>
        <g transform="matrix(0.914037,0,0,0.914037,-621.545,-225.767)">
            <g transform="matrix(1.61016,0,0,1.61016,-267.539,-179.796)">
                <path d="M644.547,401C642.193,395.389 644.635,386.203 646,382C648.358,374.743 656,348.595 656,348.595C656,348.595 662.482,350.861 667.76,341.915C672.542,333.812 673.515,322.838 674.573,316.758C675.387,312.077 675.459,304.977 676.035,306.741C677.741,311.955 681,333 681,333C681,333 680.984,342.322 680,347.098C678.833,352.76 677.254,360.369 674.573,368.538C672.757,374.071 669.183,383.802 666.517,387.807C664.327,391.096 659.926,399.792 657.006,402C654.269,404.07 647.012,406.875 644.547,401Z" style="fill:url(#_Linear1);"/>
            </g>
        </g>
        <g transform="matrix(0.914037,0,0,0.914037,-621.545,-225.767)">
            <g transform="matrix(1.61016,0,0,1.61016,-269.878,-176.575)">
                <path d="M676.026,366.538C676.026,366.538 668.011,390.349 655.613,398.967C651.806,401.613 647.987,401.481 646,399C646,399 647.332,402.243 650.246,403.839C653.422,405.577 658.072,405.645 661,403C663.096,401.107 665.836,397.282 667.026,394.097C673.152,377.701 676.026,366.538 676.026,366.538Z" style="fill:white;"/>
            </g>
        </g>
        <g transform="matrix(0.914037,0,0,0.914037,-621.545,-225.767)">
            <g transform="matrix(0.954419,0.278094,-0.278094,0.954419,195.823,-116.12)">
                <path d="M707,314C707,314 720.055,315.394 725.663,303.992C739.541,275.775 712.675,229.414 727.233,198.442C730.788,190.879 738.248,183.782 741.368,189.081C748.235,200.745 733.739,251.496 741.866,265.91C748.898,278.382 756.487,268.062 756,268" style="fill:none;stroke:url(#_Linear2);stroke-width:1.65px;"/>
            </g>
        </g>
        <g transform="matrix(0.914037,0,0,0.914037,-621.545,-225.767)">
            <g transform="matrix(0.954419,0.278094,-0.278094,0.954419,195.823,-116.12)">
                <path d="M692,251C692,251 691.582,242.578 698.987,242.792C706.393,243.005 707,251.635 707,251.635L707,377.439C707,377.439 707.26,412 731.561,412" style="fill:none;stroke:black;stroke-width:4.4px;"/>
            </g>
        </g>
        <g transform="matrix(0.914037,0,0,0.914037,-621.545,-225.767)">
            <g transform="matrix(-0.954419,-0.278094,-0.278094,0.954419,1592.26,290.766)">
                <path d="M692,251C692,251 691.582,242.578 698.987,242.792C706.393,243.005 707,251.635 707,251.635L707,377.439C707,377.439 707.26,412 731.561,412" style="fill:none;stroke:black;stroke-width:4.4px;"/>
            </g>
        </g>
        <g transform="matrix(0.914037,0,0,0.914037,-621.545,-225.767)">
            <g transform="matrix(1.61016,0,0,1.61016,-267.449,-135.881)">
                <circle cx="668.017" cy="255.5" r="4.5" style="fill:none;stroke:rgb(28,174,72);stroke-width:1.02px;"/>
            </g>
        </g>
        <g transform="matrix(0.914037,0,0,0.914037,-621.545,-225.767)">
            <g transform="matrix(1.61016,0,0,1.61016,-267.449,-135.881)">
                <circle cx="668.017" cy="255.5" r="4.5" style="fill:none;stroke:rgb(0,190,57);stroke-width:1.02px;"/>
            </g>
        </g>
        <g transform="matrix(0.914037,0,0,0.914037,-621.545,-225.767)">
            <g transform="matrix(0.357814,0,0,0.357814,537.218,365.292)">
                <circle cx="668.017" cy="255.5" r="4.5" style="fill:none;stroke:rgb(0,255,3);stroke-width:2.6px;"/>
            </g>
        </g>
        <g transform="matrix(0.914037,0,0,0.914037,-621.545,-225.767)">
            <g transform="matrix(0.547424,0,0,0.547424,427.211,304.771)">
                <circle cx="668.017" cy="255.5" r="4.5" style="fill:none;stroke:rgb(0,255,3);stroke-width:1.7px;"/>
            </g>
        </g>
        <g transform="matrix(0.914037,0,0,0.914037,-621.545,-225.767)">
            <g transform="matrix(0.905238,0,0,0.905238,181.648,195.961)">
                <circle cx="668.017" cy="255.5" r="4.5" style="fill:none;stroke:rgb(0,255,3);stroke-width:1.03px;"/>
            </g>
        </g>
        <g transform="matrix(0.914037,0,0,0.914037,-621.545,-225.767)">
            <g transform="matrix(1.44721,0,0,1.44721,-161.028,38.9464)">
                <circle cx="668.017" cy="255.5" r="4.5" style="fill:none;stroke:rgb(0,255,3);stroke-width:0.64px;"/>
            </g>
        </g>
        <g transform="matrix(0.914037,0,0,0.914037,-621.545,-225.767)">
            <g transform="matrix(1.61016,0,0,1.61016,-267.539,-179.796)">
                <path d="M679,306C679,306 681.545,292.18 683.824,288C688.406,279.596 692.641,280.295 692.824,281C693.249,282.629 690.386,286.089 687,291C684.297,294.92 679,306 679,306Z" style="fill:white;"/>
            </g>
        </g>
    </g>
    <defs>
        <linearGradient id="_Linear1" x1="0" y1="0" x2="1" y2="0" gradientUnits="userSpaceOnUse" gradientTransform="matrix(33.928,0,0,67.6784,645.346,367.839)"><stop offset="0" style="stop-color:rgb(6,87,0);stop-opacity:1"/><stop offset="1" style="stop-color:rgb(73,255,83);stop-opacity:1"/></linearGradient>
        <linearGradient id="_Linear2" x1="0" y1="0" x2="1" y2="0" gradientUnits="userSpaceOnUse" gradientTransform="matrix(49.0223,0,0,126.732,707,250.688)"><stop offset="0" style="stop-color:rgb(0,112,11);stop-opacity:1"/><stop offset="1" style="stop-color:rgb(0,255,77);stop-opacity:1"/></linearGradient>
    </defs>
</svg>
